<?xml version="1.0" encoding="UTF-8" standalone="no"?>
<!-- Created with Inkscape (http://www.inkscape.org/) -->

<svg
   width="210mm"
   height="235mm"
   viewBox="0 0 210 235"
   version="1.1"
   id="svg5"
   inkscape:version="1.1.1 (3bf5ae0d25, 2021-09-20)"
   sodipodi:docname="logo.svg"
   xmlns:inkscape="http://www.inkscape.org/namespaces/inkscape"
   xmlns:sodipodi="http://sodipodi.sourceforge.net/DTD/sodipodi-0.dtd"
   xmlns="http://www.w3.org/2000/svg"
   xmlns:svg="http://www.w3.org/2000/svg">
  <sodipodi:namedview
     id="namedview7"
     pagecolor="#ffffff"
     bordercolor="#666666"
     borderopacity="1.0"
     inkscape:pageshadow="2"
     inkscape:pageopacity="0.0"
     inkscape:pagecheckerboard="0"
     inkscape:document-units="mm"
     showgrid="false"
     height="257mm"
     inkscape:zoom="0.74118967"
     inkscape:cx="230.71018"
     inkscape:cy="390.58828"
     inkscape:window-width="1920"
     inkscape:window-height="1017"
     inkscape:window-x="-8"
     inkscape:window-y="-8"
     inkscape:window-maximized="1"
     inkscape:current-layer="layer1" />
  <defs
     id="defs2" />
  <g
     inkscape:label="Слой 1"
     inkscape:groupmode="layer"
     id="layer1">
    <g
       id="g14466"
       transform="matrix(0.64973247,0,0,0.64973247,189.07544,41.574026)">
      <path
         style="fill:#000000;stroke-width:0.148736"
         d="m -134.89041,294.762 c -4.28347,-0.17195 -8.92103,-0.6614 -12.50659,-1.31996 -1.9016,-0.34926 -2.04343,-0.40332 -6.17255,-2.35266 -6.11593,-2.88729 -7.19322,-3.40775 -18.35615,-8.86811 -14.23168,-6.96143 -20.65535,-10.00537 -27.34351,-12.95713 -3.01938,-1.33257 -3.75989,-1.86705 -6.49903,-4.69079 -2.49464,-2.57169 -4.38345,-5.15638 -6.39754,-8.75452 -2.18341,-3.90063 -3.97149,-8.20596 -7.13475,-17.17902 -2.33709,-6.62947 -3.55204,-9.82575 -4.85383,-12.76942 -1.0777,-2.43692 -2.73477,-5.61205 -3.67186,-7.03565 l -0.6192,-0.94068 -1.8592,-0.18126 c -10.96838,-1.06936 2.56198,-23.443 -5.36696,-32.2166 -2.77831,-3.07428 -5.54775,-7.01412 -7.36432,-10.47657 -0.45334,-0.86408 -1.77391,-3.2778 -2.9346,-5.36382 -6.20931,-11.15951 -33.7394,-0.95695 -36.35353,-7.61508 -2.70937,-6.90069 -4.40068,-13.50467 -5.02814,-19.63316 -0.33785,-3.29989 -0.23471,-8.81022 0.22134,-11.82452 0.64339,-4.25255 2.29392,-9.79006 3.19618,-10.72316 0.25128,-0.25987 2.20461,-2.11573 4.34072,-4.12411 2.13612,-2.0084 4.55752,-4.37535 5.3809,-5.25992 4.82426,-5.18277 7.26223,-9.30613 8.22803,-13.916179 0.99556,-4.752101 -0.23792,-11.103053 -2.92664,-15.068711 -3.01356,-4.444786 -4.3683,-9.232237 -4.37463,-15.459384 -0.004,-4.337079 0.65718,-8.747566 2.17112,-14.473779 l 0.68077,-2.574891 -1.05709,-1.040454 c -4.21189,-4.145604 -5.6781,-9.376972 -4.3972,-15.68899 0.99558,-4.905996 4.13295,-11.16574 8.45348,-16.866523 2.80034,-3.694959 7.61205,-8.8929145 10.35616,-11.1874749 6.76218,-5.6543808 15.30019,-9.4988248 24.84084,-11.1851828 3.51835,-0.621886 5.82059,-0.847999 9.53276,-0.93625 l 3.50895,-0.08342 1.873,-3.8095733 c 6.11468,-12.436912 11.65725,-20.776402 18.1047,-27.240764 6.22019,-6.236504 12.98338,-10.250319 20.40107,-12.107623 l 1.55768,-0.390025 5.71626,0.738498 c 10.41256,1.345227 15.22065,1.682985 21.0732,1.480347 8.31419,-0.28787 15.59494,-2.361483 21.60397,-6.152971 11.7381,-7.406332 27.18432,-7.71822 41.530936,-0.838588 2.42956,1.165044 3.86033,1.985556 7.1247,4.085857 1.50297,0.967019 4.67369,2.965635 7.04603,4.44137 13.41126,8.342595 22.18137,14.893426 29.43423,21.985903 4.44857,4.350175 7.40728,7.746472 10.42022,11.961239 2.43564,3.407221 3.28236,4.8882883 4.19132,7.3313303 1.06907,2.873413 3.06566,6.9274248 4.96575,10.0828088 0.83743,1.3906824 3.48236,5.4734884 5.87763,9.0729019 2.39526,3.599413 5.02258,7.664816 5.83847,9.034229 1.70775,2.86633 3.5682695,6.568157 4.5420595,9.037205 0.37104,0.940755 1.04107,2.480174 1.48895,3.42093 3.34141,7.018232 4.06234,13.805433 3.08863,29.077905 -0.59838,9.385415 -0.5501,15.091266 0.14833,17.533969 0.44258,1.54787 0.53527,4.317761 0.21708,6.486909 -0.33491,2.283173 -0.65854,3.71748 -1.79552,7.957382 -1.33015,4.960209 -1.57949,6.229939 -1.66939,8.500579 -0.0678,1.71289 -0.0379,2.08627 0.24023,3.00203 0.74653,2.4578 2.78246,3.89557 6.25814004,4.41953 0.78067,0.11768 2.03008996,0.21437 2.77649996,0.21485 1.2083,0.001 1.5007,0.0588 2.66638,0.52869 7.0665005,2.84882 13.4194305,7.84586 17.1983505,13.52774 1.05688,1.5891 -3.091948,6.33987 -2.536568,7.99486 0.9521,2.83721 1.10883,3.98505 1.10776,8.11328 -0.002,3.1805 5.664038,2.40677 5.422358,3.55155 -0.15849,0.75082 -0.36427,1.95558 -0.45726,2.67725 -0.54361,4.21849 -3.043644,8.95697 -3.9876,13.88872 -1.048715,5.47907 -8.474451,6.42529 -16.548211,10.16285 -8.1206747,3.75928 -11.1925334,12.46404 -13.0065434,16.37345 -2.07026,4.46163 9.3807439,11.3728 6.36773394,14.51712 -6.64917004,6.93894 -16.52687954,11.93051 -28.39386954,14.34845 -1.46039,0.29758 -2.66291,0.5518 -2.67223,0.56495 -0.26343,0.37099 -1.78228,3.42841 -2.56185,5.1569 -1.43869,3.18993 -2.29817,5.35056 -4.99883,12.56659 -4.53801,12.12539 -6.57888,16.58482 -9.97214,21.78984 -3.79765,5.82531 -9.11296,10.80185 -13.01548,12.18598 -1.96592,0.69724 -5.74046,2.3067 -8.47796,3.61498 -3.52899,1.68654 -7.1457,3.64945 -14.94798,8.11283 -8.84042,5.05725 -10.85339,6.1642 -14.809666,8.14406 -4.99603,2.50018 -5.8733,2.85293 -8.31872,3.34507 -8.62019,1.73479 -18.21246,2.5808 -25.80578,2.27599 z m 8.47795,-7.48766 c 5.39252,-0.24923 10.18756,-0.99799 14.70785,-2.29666 16.914146,-4.85939 29.908706,-16.17077 35.335626,-30.75856 0.31177,-0.83806 1.30156,-3.09663 2.19956,-5.01904 0.89798,-1.92242 2.58564,-5.7375 3.75033,-8.47796 1.16471,-2.74046 3.05735,-7.19139 4.20587,-9.89095 3.18209,-7.4794 6.12525,-13.68049 8.33,-17.55086 2.02283,-3.551 2.3913,-4.1166 2.52561,-3.8766 0.26843,0.47965 0.84018,3.04192 1.01676,4.55659 0.44539,3.82048 -0.33895,8.91807 -2.21826,14.41672 -1.05659,3.0915 -1.90256,5.15631 -4.78852,11.68767 -2.88096,6.52006 -4.15301,9.61572 -4.9762,12.11011 -0.37489,1.13596 -0.86347,2.20703 -1.45467,3.18892 -2.85145,4.73584 -2.94835,8.60227 -0.22114,8.82269 3.268,0.26416 9.33277,-5.70484 13.67605,-13.46008 3.22016,-5.74982 4.92023,-10.39564 9.56632,-26.14208 1.47819,-5.0099 3.09884,-9.84336 4.23902,-12.64256 0.49981,-1.22708 1.47858,-4.03819 2.17504,-6.24692 0.69644,-2.20873 2.36162,-7.42937 3.70038,-11.60141 4.47407,-13.94287 6.29042,-20.0608 8.09307,-27.2597 3.49757,-13.96758 4.95467,-25.07854 4.72466,-36.02751 -0.1395,-6.64063 -0.63824,-11.09338 -1.57904,-14.09789 -1.70093,-5.43197 -2.61767,-9.98922 -4.61406,-22.937393 -1.70661,-11.068684 -2.82734,-16.416899 -4.55079,-21.716827 -0.97717,-3.004999 -1.1124,-3.250755 -6.83294,-12.418105 -4.60747,-7.383639 -5.77935,-9.387516 -7.5239,-12.865672 -2.13187,-4.250358 -3.38748,-7.56428 -4.30597,-11.364652 -0.88516,-3.662433 -0.94284,-4.343484 -0.97107,-11.466337 -0.0276,-6.96567 -0.12126,-8.106797 -0.81314,-9.907472 -0.87002,-2.264292 -2.66276,-3.523508 -5.48317,-3.851349 -0.84209,-0.09788 -2.00412,-0.4600145 -4.5517,-1.4184845 -32.68974,-12.2987442 -48.038396,-16.9703522 -65.177046,-19.8376715 -2.06724,-0.345852 -4.3336,-0.824608 -5.32242,-1.124327 -5.40157,-1.637293 -11.97593,-2.905124 -18.66782,-3.599997 -3.50323,-0.36377 -13.33793,-0.364696 -16.80718,-0.0016 -12.44784,1.302861 -22.99847,4.567762 -32.67105,10.1100913 -1.05055,0.601956 -3.44951,1.888461 -5.33102,2.858897 -7.80907,4.027724 -12.52977,6.9246672 -16.40011,10.0642232 -1.64097,1.331134 -4.35061,3.9882795 -5.66215,5.5524665 -3.14715,3.753388 -5.40546,8.411573 -6.27341,12.940039 -0.17247,0.899853 -0.50709,2.539669 -0.7436,3.644034 -0.76742,3.58346 -0.93439,5.741412 -0.8459,10.932103 0.0432,2.53595 0.2164,6.369783 0.38481,8.519628 0.95127,12.143223 0.32037,17.587032 -2.83408,24.45417 -3.7829,8.235251 -4.98697,18.584778 -3.53294,30.367255 0.58391,4.73163 1.46321,9.39063 3.19469,16.92715 l 0.80879,3.52039 0.001,2.87526 c 0.007,14.83966 2.87657,34.356 7.74807,52.70186 4.90116,18.45762 11.15802,36.15401 23.92759,67.67492 3.08155,7.60662 2.83252,7.18437 5.79236,9.82143 4.96027,4.41934 9.40049,6.95406 10.83602,6.18577 0.81543,-0.4364 0.51486,-1.98745 -0.95466,-4.92636 -0.59312,-1.18617 -1.64211,-3.56223 -2.3311,-5.28013 -0.68899,-1.7179 -2.39134,-5.70031 -3.78301,-8.8498 -6.03593,-13.65998 -7.86824,-19.4994 -8.38642,-26.72695 -0.15351,-2.1411 -0.0253,-5.5804 0.26141,-7.01408 l 0.0931,-0.46532 0.75334,0.63065 c 2.01342,1.68551 4.40597,4.94758 6.13865,8.36959 1.83027,3.61474 3.22224,7.46895 6.01462,16.65379 2.74094,9.01565 3.4599,10.87464 6.84523,17.69959 3.15167,6.35389 4.65654,8.7655 7.84809,12.57683 10.42564,12.45027 27.68902,20.45486 45.8391,21.25442 1.34978,0.0594 2.52108,0.11717 2.60289,0.12825 0.0818,0.0112 1.55429,-0.0448 3.27219,-0.12421 z m 32.721946,-72.89598 c -2.32235,-0.2186 -6.27484,-0.84802 -12.066306,-1.92151 -7.14858,-1.32506 -9.88921,-1.71649 -14.03688,-2.00486 -1.84061,-0.12797 -4.04934,-0.29401 -4.90829,-0.36897 -2.38406,-0.20808 -7.17554,-0.17414 -10.4859,0.0743 -3.82171,0.28676 -7.50562,0.74488 -15.53407,1.93174 -12.54417,1.85442 -14.4215,2.02208 -23.43478,2.09282 -8.88685,0.0697 -10.17194,-0.0773 -12.21423,-1.39726 -0.7937,-0.51299 -0.94033,-0.68967 -1.37016,-1.65096 -1.0208,-2.28298 -1.09363,-3.81902 -0.20952,-4.41868 0.33324,-0.22602 0.6656,-0.27272 1.82065,-0.25582 1.46939,0.0215 1.6539,0.0622 7.92076,1.74717 5.92848,1.59399 9.25783,1.67618 11.46474,0.28301 0.63811,-0.40282 1.92837,-0.6493 7.90757,-1.51059 11.81559,-1.70203 21.55881,-2.35848 32.72195,-2.20465 3.4358,0.0473 7.28435,0.15733 8.55232,0.24443 6.09086,0.41833 11.81145,1.08574 13.52419,1.57785 3.42511,0.98411 8.550576,1.14512 16.892336,0.53066 4.86262,-0.35819 9.3695,-0.42995 11.00648,-0.17525 1.33318,0.20742 2.85899,0.66766 3.38922,1.02229 l 0.41449,0.27724 -1.03954,0.98065 c -2.9436,2.77684 -6.73702,4.46971 -11.40916,5.09152 -1.77323,0.23598 -6.66189,0.26613 -8.90587,0.0549 z M -133.32868,177.1482 c -1.17053,-0.25941 -2.23578,-0.62425 -3.99329,-1.36765 -1.35388,-0.57268 -1.67237,-0.65104 -2.64593,-0.65104 -6.69399,0 -14.44979,-3.21821 -18.09563,-7.50863 -1.90669,-2.24379 -2.63502,-3.9238 -2.74158,-6.32383 -0.15238,-3.43198 1.11532,-6.0516 4.64809,-9.60493 2.49934,-2.51389 3.60983,-3.05833 6.22354,-3.05117 2.18434,0.006 3.96353,0.66413 5.42497,2.00685 0.74942,0.68853 1.06577,1.31535 1.06577,2.11172 0,0.44348 -0.11769,0.66179 -0.63213,1.17259 -0.81504,0.80932 -1.93764,1.22572 -4.12742,1.53099 l -1.71047,0.23845 -1.27695,1.28461 c -0.86134,0.8665 -1.43014,1.59118 -1.74764,2.22655 -1.64144,3.28482 0.84701,5.45632 8.15599,7.11721 1.80206,0.4095 3.65716,0.73068 11.82452,2.04723 2.41599,0.38946 4.46131,0.81734 5.13965,1.07525 0.27572,0.10483 0.4509,0.0845 0.6663,-0.0772 0.56977,-0.42784 2.24213,-1.1996 3.41568,-1.57626 1.88913,-0.60634 2.58068,-0.78046 6.91623,-1.7414 6.10427,-1.35298 7.9152,-1.9233 9.44147,-2.9734 0.70025,-0.48177 1.26753,-1.36815 1.26753,-1.9805 0,-0.74789 -0.88224,-2.14748 -2.02843,-3.21789 -1.39281,-1.30072 -3.21746,-2.53748 -3.74756,-2.54008 -0.64083,-0.003 -3.00344,-0.53496 -3.92188,-0.88278 -1.74138,-0.65948 -2.2513,-1.71935 -1.28981,-2.68084 1.78205,-1.78206 7.12508,-2.74047 10.91331,-1.9576 2.99348,0.61864 5.12554,2.10777 6.234346,4.3544 1.013,2.05248 1.61114,6.90364 1.14359,9.27488 -0.83456,4.23262 -3.913046,6.9139 -9.906446,8.62827 -2.03014,0.58071 -4.54721,1.05741 -9.87801,1.8708 -7.2375,1.10431 -9.64503,1.64073 -12.35804,2.75345 -0.69534,0.28519 -1.33119,0.54209 -1.41299,0.57088 -0.0818,0.0288 -0.51686,-0.0292 -0.96678,-0.12892 z m -5.57761,-32.52475 c -0.87533,-0.26888 -0.91633,-0.36274 -1.09893,-2.51588 -0.97895,-11.54343 -1.07349,-27.90782 -0.23285,-40.30496 0.15483,-2.283229 0.68548,-8.401814 0.73278,-8.449112 0.085,-0.08494 1.12401,1.724283 1.71696,2.989593 2.40469,5.131469 3.3539,12.014159 2.97655,21.582839 -0.0906,2.29854 -0.26484,5.78551 -0.3871,7.74883 -0.34672,5.56804 -0.44036,11.78248 -0.21476,14.25339 0.18928,2.07308 0.18692,2.12037 -0.14435,2.88953 -0.39346,0.91358 -1.10292,1.59229 -1.89406,1.81199 -0.65243,0.18117 -0.84687,0.18036 -1.45424,-0.006 z M -223.7,138.6735 c -0.24846,-0.27459 -0.27983,-0.52633 -0.25485,-2.04512 0.0212,-1.29051 0.10426,-1.94933 0.32578,-2.58471 1.3299,-3.81448 6.09058,-5.82725 13.18072,-5.57265 7.32396,0.263 12.37936,2.79785 9.2442,4.63519 -0.91927,0.53872 -2.14232,0.93088 -4.21589,1.35177 l -1.81354,0.36811 -0.6406,-0.3367 c -0.52658,-0.27675 -0.86563,-0.33474 -1.90486,-0.32585 -1.72891,0.0149 -3.21661,0.54185 -7.51117,2.66099 -1.88151,0.92843 -3.7412,1.79471 -4.13263,1.92508 -1.02542,0.34151 -1.92652,0.31139 -2.27716,-0.0761 z m 100.66127,-4.78107 c -0.38479,-1.02282 -0.48878,-1.58608 -0.62483,-3.38375 -0.0898,-1.18617 -0.36516,-3.72956 -0.61202,-5.65197 -0.24684,-1.92242 -0.58009,-4.53273 -0.74054,-5.80071 -0.377,-2.97924 -0.53733,-8.70866 -0.29172,-10.42509 0.45989,-3.21414 1.5541,-5.55431 3.11759,-6.66762 l 0.41446,-0.29512 0.69131,2.11234 c 1.45064,4.43257 2.50285,9.01189 3.0998,13.49066 0.43239,3.24399 0.47121,8.28628 0.0802,10.41152 -0.46374,2.52038 -1.19344,4.33828 -2.30669,5.74663 -0.57016,0.72133 -1.82532,1.69018 -2.18962,1.69018 -0.097,0 -0.38403,-0.55218 -0.63792,-1.22707 z m 63.357326,-2.29059 c -0.31248,-0.0685 -0.33871,-0.13341 -0.25131,-0.62198 0.16948,-0.94734 0.8953,-2.29968 1.71458,-3.19463 3.2343,-3.53296 10.89113,-5.96684 17.98508,-5.71695 5.52198,0.19453 8.10009,1.91112 7.09187,4.722 -0.2125,0.59246 -0.0126,0.52744 -3.41932,1.11254 -1.21864,0.2093 -4.29748,0.87575 -6.84186,1.481 -7.95849,1.89311 -9.53998,2.1602 -13.25287,2.23821 -1.47248,0.0309 -2.83425,0.0219 -3.02617,-0.0202 z m -24.78748,-1.36388 c -0.32722,-0.15599 -0.88309,-0.59394 -1.23526,-0.97324 -0.35217,-0.37929 -0.70678,-0.68961 -0.78801,-0.68961 -0.38081,0 -1.9586,-1.20677 -3.37018,-2.57769 -3.26272,-3.1687 -6.4215,-8.12741 -7.25849,-11.3945 -0.35662,-1.39204 -0.24556,-2.72202 0.27038,-3.23796 0.766,-0.766 2.70946,-0.60927 4.96821,0.40071 0.98532,0.44056 1.06597,0.51695 1.91558,1.81419 1.2827,1.95853 2.76975,3.39439 4.28019,4.13286 2.11762,1.03531 3.95803,1.08928 6.63366,0.19453 1.16249,-0.38873 3.96135,-1.7319 5.66476,-2.71849 0.53173,-0.30797 1.72054,-0.96378 2.64179,-1.45735 1.5789,-0.84589 1.70693,-0.88862 2.23105,-0.74447 3.15975,0.86902 3.49934,3.42126 0.96583,7.25895 -2.64459,4.00597 -7.99631,8.26625 -12.26657,9.76491 -1.49976,0.52636 -3.79073,0.6382 -4.65294,0.22716 z m -95.013906,-1.14239 c -1.7745,-0.48783 -3.52214,-1.67007 -5.19635,-3.51523 -0.77064,-0.84934 -1.36723,-1.34194 -2.13658,-1.76419 -2.22965,-1.2237 -4.08051,-3.01595 -4.84692,-4.69343 -0.25408,-0.55611 -0.33619,-1.00872 -0.33591,-1.85155 4.4e-4,-1.32152 0.30699,-2.02372 1.25891,-2.88373 0.97683,-0.88251 1.78261,-1.16966 3.49591,-1.24581 1.32269,-0.0588 1.62196,-0.0218 2.67725,0.33101 1.59706,0.53393 3.14147,1.52264 4.59483,2.94154 l 1.20409,1.17554 1.04115,-0.0653 c 1.91505,-0.12007 2.71228,-0.46075 10.9321,-4.67174 3.71629,-1.90384 5.03069,-2.32866 5.97787,-1.93208 0.45034,0.18855 0.57912,0.34173 0.71664,0.85245 0.35983,1.3363 -0.90828,5.34349 -2.19897,6.94867 -2.55514,3.17773 -5.33114,5.99547 -7.5597,7.67338 -1.50952,1.13652 -3.86845,2.35567 -5.21216,2.69373 -1.1048,0.27796 -3.41268,0.28147 -4.41216,0.007 z m 96.252936,-18.08646 c -2.50056,-1.8546 -3.86507,-2.55817 -8.92067,-4.59966 -6.68498,-2.69943 -8.604956,-3.78861 -8.604956,-4.88146 0,-0.76808 0.73439,-1.29865 2.677246,-1.934229 2.35125,-0.76917 3.35077,-0.87355 7.65991,-0.79991 2.63031,0.0449 5.8633,-0.0198 9.37037,-0.18778 11.36667,-0.5443 16.80476,-0.29338 21.18273,0.97736 1.45054,0.421019 3.60258,1.341809 4.23101,1.810279 0.25675,0.19139 0.22362,0.22696 -0.44621,0.47923 -1.98314,0.74688 -4.36566,1.84098 -9.87081,4.53291 -7.74923,3.78924 -10.87332,5.06341 -14.37826,5.86416 l -0.91764,0.20964 z m -97.337106,0.31565 c -0.90041,-0.1351 -1.7173,-0.38814 -2.46358,-0.76314 -0.43559,-0.21888 -0.59364,-0.42134 -0.7897,-1.01164 -0.13482,-0.40589 -0.49702,-1.12706 -0.8049,-1.60262 -0.95111,-1.46905 -2.10588,-2.29868 -4.03337,-2.89772 -1.01173,-0.31441 -1.38539,-0.34605 -4.01588,-0.33996 -2.74289,0.006 -3.10627,0.0424 -6.69312,0.6644 -3.13955,0.54442 -4.12579,0.65854 -5.72634,0.6626 -1.57448,0.004 -2.02288,-0.0439 -2.41445,-0.25789 -1.23228,-0.67346 -1.2473,-2.33193 -0.0471,-5.20398 0.55098,-1.318509 0.348,-1.217279 2.90778,-1.450139 0.98165,-0.0893 3.55851,-0.32462 5.72634,-0.5229 9.95726,-0.91079 15.58765,-16.49329 22.10219,-16.49476 8.18957,-0.002 12.51317,15.91582 18.6515,17.33246 l 1.41299,0.32608 -0.96679,0.327569 c -1.91931,0.65029 -3.614,1.69047 -9.39195,5.76468 -5.35177,3.7737 -8.51817,5.26884 -11.6542,5.50298 -0.57264,0.0428 -1.38236,0.0266 -1.7994,-0.036 z m -40.4318,-35.007002 c -0.5922,-0.592208 -0.50083,-1.074461 0.48746,-2.572802 5.05633,-7.665831 13.17067,-12.231319 24.26725,-13.653833 4.30706,-0.552138 10.16452,-0.640378 14.87361,-0.224063 0.85895,0.07594 2.4653,0.206937 3.56966,0.291109 3.1836,0.24265 4.5405,0.415004 9.37038,1.190222 6.19688,0.994631 7.15091,1.086562 10.3903,1.001214 3.14749,-0.08293 4.69392,-0.39301 6.79016,-1.361532 0.63578,-0.293749 1.17001,-0.53409 1.18718,-0.53409 0.0172,0 -0.0225,0.340054 -0.0882,0.755676 -0.62291,3.940489 -3.42943,7.750093 -6.90108,9.367594 -2.60744,1.214852 -4.8844,1.188748 -7.43681,-0.08526 -2.55489,-1.275244 -12.73861,-3.57587 -19.18695,-4.334564 -2.79204,-0.328503 -10.04714,-0.375414 -12.41947,-0.08031 -7.52422,0.935989 -12.77092,3.119897 -20.26971,8.437155 -1.7428,1.235787 -3.03631,1.952878 -3.77849,2.094694 -0.38134,0.07287 -0.54785,0.01617 -0.85524,-0.291214 z m 178.622196,-0.231147 c -2.00165,-0.585276 -4.12213,-1.727435 -6.00735,-3.235734 -4.56896,-3.655461 -9.86446,-5.868004 -15.93122,-6.65631 -6.27552,-0.815431 -12.45993,-0.304149 -25.19706,2.083111 -5.0184,0.940575 -10.12644,1.78801 -12.096796,2.00688 l -1.67154,0.185681 -1.08007,-0.731966 c -0.59404,-0.402581 -1.79013,-1.434743 -2.65799,-2.293694 -2.0105,-1.989876 -2.58139,-3.029213 -2.48607,-4.526087 0.0697,-1.095182 0.35318,-1.517294 1.38674,-2.065123 0.86034,-0.456016 2.86658,-0.443674 4.38131,0.02695 1.27737,0.39688 2.84513,1.156925 4.022276,1.950007 0.63756,0.429542 0.90009,0.52753 1.18989,0.444125 6.37901,-1.835907 11.35249,-2.868766 17.26776,-3.586057 3.66225,-0.444089 11.98908,-0.489607 15.15143,-0.08282 7.83942,1.008402 14.45071,3.45456 19.48971,7.211124 3.26653,2.435193 6.91303,5.912066 7.54836,7.197214 0.46325,0.937072 0.44323,1.652898 -0.0573,2.046567 -0.49913,0.392625 -1.95862,0.404352 -3.25213,0.02613 z M -232.23819,208.08312 c 0,-0.0362 -0.23743,-1.15729 -0.52763,-2.49133 -0.2902,-1.33405 0.82238,14.76493 -0.36354,8.50686 -2.18524,-11.53147 -5.33891,-37.98958 -6.41476,-42.68755 -2.75288,-12.02119 -6.11522,-22.07053 -9.95804,-29.76249 -0.63102,-1.26308 -1.24134,-2.91789 -2.27654,-6.17255 -1.71342,-5.38695 -2.27278,-7.00963 -3.2505,-9.42946 -2.11364,-5.2312 -4.36986,-8.44107 -6.75718,-9.61331 -0.76216,-0.37423 -1.03341,-0.42638 -2.21818,-0.42638 -1.29296,0 -1.40468,0.0272 -2.65119,0.64485 -1.05528,0.52291 -1.59838,0.93071 -2.87217,2.15667 -2.6098,2.51181 -5.64929,6.77854 -7.10613,9.97537 -1.9499,4.27877 -2.84501,9.59937 -2.47859,14.733 0.67469,9.45274 28.41541,2.40892 36.19499,16.69427 1.20775,2.21776 4.74501,7.65491 7.9346,12.19636 11.60577,2.70886 1.26231,26.73939 1.36905,35.7269 0.7567,0.008 1.37581,-0.015 1.37581,-0.0512 z m 206.668806,-0.39548 c 2.95765,-0.36007 6.29656,-1.46352 9.96532,-3.29334 5.8405495,-2.91301 -2.648794,-11.94143 1.841196,-19.77548 1.5304,-2.67023 9.5015225,-9.99078 11.9875125,-15.55782 2.14326003,-4.79954 13.0795515,-4.74662 14.2324215,-6.77393 0.42594,-0.74902 1.3434,-2.26543 2.0388,-3.3698 3.46699,-5.50598 -7.3242648,-5.80916 -7.5895048,-11.43774 -0.55855,-11.85258 3.8720748,-26.27237 -7.41262566,-28.57204 -2.31767004,-0.47231 -2.18706004,-0.51133 -3.85838004,1.15248 -3.0901,3.07623 -5.16241,6.63271 -6.9914595,11.99872 -1.32446,3.88565 -2.18585,7.64969 -3.81489,16.67016 -1.67426,9.27082 -2.37029,12.30178 -3.72292,16.21223 -0.88021,2.54468 -1.94365,7.0383 -4.36475,18.44328 -1.87144,8.81572 -4.15488,20.70116 -4.55139,23.69015 l -0.10307,0.77693 h 0.50257 c 0.27639,0 1.10493,-0.0738 1.84117,-0.16338 z M -246.30729,123.83052 c 0.30922,-0.34169 0.62572,-1.48744 0.76173,-2.75748 l 0.10034,-0.93695 -1.27135,-2.58516 c -3.03163,-6.16455 -4.42547,-12.03564 -4.65684,-19.615449 -0.22617,-7.409575 1.05985,-15.48266 3.76723,-23.649042 0.52885,-1.595194 1.18649,-3.676173 1.46143,-4.624395 0.27493,-0.948222 1.23478,-3.658938 2.133,-6.023812 2.25558,-5.938577 2.82484,-7.894971 3.08342,-10.596915 l 0.10445,-1.091381 -1.04344,-1.065292 c -1.78197,-1.819273 -2.66684,-3.485831 -3.2507,-6.122318 -0.42984,-1.941005 -0.34936,-5.930361 0.21944,-10.878471 0.25522,-2.220136 0.46178,-4.663127 0.45904,-5.428868 l -0.005,-1.392256 -0.47841,0.59259 c -1.05171,1.302736 -4.22597,5.085277 -6.86694,8.18284 -7.01425,8.226951 -10.23486,12.764089 -12.64445,17.813313 -2.16365,4.533858 -3.14704,8.333646 -3.30021,12.751953 l -0.0799,2.305409 1.11753,-2.168781 c 3.41177,-6.62121 7.45605,-12.591748 10.08576,-14.889544 2.43025,-2.123511 4.15587,-2.521599 5.5655,-1.283924 0.57042,0.500835 1.26309,1.578303 1.29144,2.008889 0.0215,0.326189 -0.73241,2.067305 -3.56148,8.225226 -2.77922,6.049417 -3.8164,8.45324 -4.94453,11.459609 -2.39559,6.384074 -3.42081,11.662267 -3.23473,16.653529 0.1318,3.534966 0.72103,6.335581 1.98712,9.444741 0.79348,1.948579 1.17572,2.632089 1.90336,3.403539 0.99238,1.05216 2.22044,3.78374 5.2904,11.76754 2.51741,6.54678 3.83677,9.37728 4.83741,10.37793 0.47679,0.47679 0.81681,0.51253 1.1694,0.12293 z m 230.772866,-19.05318 c 0.57885,-4.621 1.58943,-8.673459 2.78066,-11.150509 0.57613,-1.19804 0.69332,-1.594793 0.7563,-2.560715 0.0678,-1.040127 0.0348,-1.227846 -0.3664,-2.08528 -0.57278,-1.224009 -1.68781,-2.411976 -4.35049,-4.635061 -2.5578,-2.135519 -3.75915,-3.307277 -4.69979,-4.584011 -1.44961,-1.967591 -2.00178,-3.578125 -2.08567,-6.08337 -0.0528,-1.577855 -0.11487,-1.890473 -0.73394,-3.697838 -0.997,-2.910758 -2.16311,-5.378734 -2.93758,-6.217195 -1.06679,-1.154949 -0.93421,0.875063 0.34224,5.240258 0.32456,1.109892 1.06228,4.342191 1.6394,7.182885 2.15306,10.597916 4.872,23.001167 7.42875,33.888336 1.35629,5.77541 1.18798,5.65844 1.58014,1.09815 0.18642,-2.16783 0.47729,-5.04587 0.64638,-6.39565 z m 1.61429,-38.26465 c 0.91565,-0.846312 1.8119,-2.908474 1.81049,-4.165718 -0.002,-1.113001 -0.37571,-3.429553 -0.75075,-4.644607 -0.72453,-2.347266 -2.54349,-5.60045 -4.5648,-8.164103 -1.33856,-1.697711 -2.54417,-3.018929 -6.79472,-7.446225 -5.74551,-5.98445 -7.49296,-8.059829 -9.15382,-10.871723 -0.79798,-1.351014 -1.87648,-3.739084 -2.02578,-4.485617 -0.0835,-0.417385 -0.045,-0.460181 0.70263,-0.781806 0.52083,-0.224059 1.212,-0.366521 2.02397,-0.417178 1.07719,-0.06721 1.39702,-0.02358 2.53067,0.345191 2.9338,0.954356 6.1778,3.793022 11.03906,9.659784 4.04617,4.883073 5.54843,6.321284 6.60279,6.321284 0.47721,0 0.98657,-0.362621 0.98657,-0.702335 0,-0.272527 -1.66965,-4.364568 -2.917,-7.149056 -4.57094,-10.203909 -9.80871,-18.801739 -15.92121,-26.1348045 -0.88646,-1.063463 -2.91938,-3.272194 -4.51763,-4.9082908 l -2.90588,-2.9747214 0.26832,-1.041153 c 0.84324,-3.272038 0.29137,-6.434142 -1.5808,-9.0577553 -0.97453,-1.365691 -2.75278,-3.055923 -4.75444,-4.519125 -3.80672,-2.782701 -6.49643,-4.994536 -15.41565,-12.676772 -12.37425,-10.65811 -17.49371,-14.581193 -24.54145,-18.806336 -5.85344,-3.509153 -14.04047,-6.89534 -17.780256,-7.353984 -3.29848,-0.404523 -7.95461,-0.112775 -11.86498,0.743446 -4.2696,0.934876 -7.54718,2.045905 -16.31422,5.530157 -12.09368,4.806351 -16.45207,5.9897 -22.70005,6.163308 -4.09562,0.113802 -6.8755,-0.268696 -10.47025,-1.440664 -2.71277,-0.884423 -5.05261,-1.241893 -8.10397,-1.238089 -2.92006,0.0036 -4.82921,0.257005 -7.54162,1.000855 -10.39622,2.851051 -20.71008,11.514229 -28.56571,23.993906 -0.5531,0.878656 -1.41863,2.413306 -1.92342,3.410336 -0.74272,1.466999 -0.93,1.981587 -0.9818,2.697762 -0.0555,0.767822 -0.0198,0.929214 0.27009,1.219086 0.30322,0.303222 0.43192,0.326194 1.39248,0.248549 1.11571,-0.09019 2.48942,-0.520159 6.26414,-1.960701 1.22707,-0.468287 3.00075,-1.048329 3.94151,-1.288986 0.94075,-0.240656 3.91919,-1.076828 6.61875,-1.858161 11.91394,-3.448244 16.60908,-4.677315 21.76687,-5.698023 12.49228,-2.47218 23.04159,-2.344044 31.77813,0.385988 0.89985,0.28119 3.71096,0.937302 6.24691,1.458025 25.21635,5.17784 49.894686,13.4156673 80.094386,26.7361375 3.97947,1.75526 3.62985,1.440081 4.47863,4.0374595 1.13127,3.4618 1.53422,6.891803 1.84064,15.667843 0.1223,3.502856 0.28917,7.071608 0.37082,7.930559 0.73848,7.768679 2.63845,12.584202 6.48133,16.427074 0.95741,0.957417 3.22623,2.759881 3.47395,2.759881 0.0604,0 0.41868,-0.485252 0.79608,-1.078337 0.81078,-1.274116 1.85781,-2.369398 2.78666,-2.915092 0.92147,-0.541347 2.14882,-0.538943 3.19783,0.0063 2.09232,1.087445 3.61631,3.140334 7.43179,10.010977 2.28814,4.120329 2.98045,5.210261 3.99244,6.285612 1.1997,1.274813 2.08055,1.499367 2.90227,0.739879 z m -48.95917,-80.94744 c -0.97807,-0.371583 -2.33457,-1.461238 -4.11308,-3.303954 -3.44014,-3.564332 -6.4629,-5.67536 -16.16112,-11.286558 -2.90962,-1.683455 -6.20304,-3.638721 -7.31868,-4.345038 -3.7347,-2.364444 -7.54754,-5.42056 -9.625736,-7.715347 -1.14769,-1.267303 -2.77858,-3.33018 -2.69716,-3.411595 0.11211,-0.112111 2.971336,0.42819 4.800646,0.907167 8.73811,2.287946 18.91362,8.167013 31.14034,17.991838 3.16206,2.540887 3.88668,3.196095 4.69158,4.24212 2.02577,2.632627 2.59643,5.594052 1.30037,6.748165 -0.40811,0.363431 -1.31213,0.441054 -2.01716,0.173202 z m -17.3506,-2.021263 c -0.61353,-0.0656 -2.33422,-0.39061 -3.82373,-0.722247 -1.48952,-0.331638 -4.70222,-0.973473 -7.13934,-1.426302 -15.693256,-2.915889 -20.899436,-4.169788 -26.667156,-6.422751 -4.07765,-1.592791 -8.62231,-4.157816 -11.67578,-6.589864 -1.33519,-1.063454 -4.1067,-3.708987 -4.5795,-4.371354 l -0.30936,-0.433369 1.88253,0.09541 c 5.30071,0.268653 9.53416,1.349248 22.56221,5.759057 11.958436,4.047763 16.993686,5.345341 22.510266,5.800862 1.07784,0.089 2.35061,0.260055 2.82836,0.380119 2.07881,0.522434 4.76048,2.157658 6.65666,4.059084 1.43844,1.442426 1.90715,2.316704 1.63116,3.042593 -0.28193,0.741563 -1.7521,1.055884 -3.87632,0.828762 z M -267.63871,42.345364 c 0.24727,-0.224963 0.81267,-1.078336 1.25644,-1.896385 0.44378,-0.818048 0.9138,-1.636412 1.04449,-1.818584 0.13069,-0.182173 0.60004,-1.055193 1.043,-1.940045 1.69218,-3.380307 4.2076,-6.051521 7.73824,-8.217519 1.18671,-0.728033 4.32553,-2.314628 6.59559,-3.333913 6.79701,-3.051932 9.89328,-5.403443 12.01792,-9.127195 0.79318,-1.390156 1.42379,-2.99203 1.77546,-4.509956 0.25007,-1.079426 0.32236,-1.200189 1.51359,-2.5285145 1.45553,-1.62305 2.86804,-3.689907 3.33229,-4.8759764 0.22109,-0.5648417 0.32931,-1.1755877 0.33677,-1.9004888 0.0102,-0.9874544 -0.0222,-1.1028334 -0.42814,-1.5269157 -1.33534,-1.3950163 -4.01417,-0.8384583 -9.07998,1.8864763 -0.16361,0.088007 -1.40184,0.6969892 -2.75162,1.3532932 -13.89437,6.7558669 -24.20566,21.6768699 -25.71337,37.2086509 -0.0754,0.777146 -0.1064,1.463191 -0.0688,1.524545 0.16118,0.262972 0.96035,0.09171 1.38811,-0.297473 z"
         id="path39"
         sodipodi:nodetypes="sssssssssscsssssssssssscscsssssscssscsssssscccscsccssssscsccsscscssssscssssssssssssssssssssssssssssssssssssssscscscsssssssssssccssssssssscsssssscsssssscsssssssssscsssscssssssssssssssscssssscssssscssssssssssscsscscssssccsssssscscsssssssssscssssssssscsssccsssssssssssssssssscsssssssscsssssssccssssccssssscsssssscsssssccscsscsssssssssssssssssssscsssscsscsssssssscccssssssssssssssccsscssssssssssssscsccsscsssssscsssscsssscssssssssssssscsscsccssscssccccscscsssssscsccsssssssssscssssssssssssscsssscscssccssssssssscssssssscssssscsssssssssssssssssss" />
      <path
         style="fill:#008000;stroke:#000000;stroke-width:5.7222;stroke-miterlimit:4;stroke-dasharray:none;stroke-opacity:1"
         d="m -533.74122,1080.6373 c -26.11078,-4.9473 -64.03189,-19.0029 -84.1692,-31.1978 -53.43403,-32.3589 -83.48328,-76.61003 -110.70525,-163.02672 -13.78449,-43.75919 -25.80636,-70.10985 -38.77854,-84.99849 -11.33897,-13.01415 -14.5849,-8.08184 -12.56024,19.08578 2.27103,30.47349 7.335,46.60918 35.07714,111.76875 13.89728,32.64133 24.70319,60.26139 24.01314,61.37789 -1.7769,2.87508 -16.01037,-4.79162 -33.09982,-17.82885 -16.90605,-12.8973 -16.75416,-12.59735 -52.1071,-102.8969 -36.7968,-93.9875 -59.16458,-162.82604 -60.33581,-185.6881 -0.73468,-14.34049 -2.5252,-21.21314 -7.44552,-28.5786 -10.26876,-15.37177 -23.8294,-95.00132 -27.38473,-160.80599 -0.9622,-17.8092 -4.9465,-47.55867 -8.85398,-66.10993 -5.81099,-27.58832 -7.12295,-41.09903 -7.20571,-74.20503 l -0.10118,-40.47547 12.11967,-33.72955 12.11966,-33.72956 0.0537,-67.45912 c 0.0451,-56.72845 0.82917,-70.22334 4.92886,-84.836636 13.24281,-47.203695 38.07045,-70.71657 120.65888,-114.269303 56.51572,-29.803371 104.32254,-42.421899 160.38521,-42.333391 39.75139,0.06276 52.38454,2.248083 173.77355,30.059952 31.99005,7.329358 79.44382,22.684048 190.50567,61.64223 17.80921,6.2471 34.73446,13.614086 37.61164,16.371083 4.51548,4.326836 5.49223,10.471042 7.13845,44.904115 2.55861,53.51724 7.81562,67.64941 51.93186,139.60619 22.18752,36.18947 26.58691,49.92285 38.50555,120.20192 5.15963,30.42406 12.509542,68.06624 16.333125,83.6493 6.519735,26.57117 6.869281,31.35284 5.6218,76.90339 -1.411299,51.53137 -5.563273,78.11558 -20.861035,133.56905 -9.10074,32.98975 -44.61856,145.54955 -49.96602,158.34786 -2.00898,4.80814 -10.48935,30.89123 -18.84527,57.96244 -17.64846,57.17678 -27.99305,80.74826 -45.68121,104.09049 -19.17274,25.30141 -42.02662,36.5016 -42.02662,20.59627 0,-2.05308 11.03124,-29.52891 24.51383,-61.05741 31.86866,-74.52351 38.67547,-100.93513 33.14264,-128.59933 -4.10694,-20.53461 -11.54938,-6.7195 -74.7386,138.73388 -21.31236,49.05829 -32.85513,67.20999 -57.19244,89.93829 -23.44951,21.8993 -51.79972,37.5648 -86.41126,47.7484 -30.62485,9.0106 -78.18865,11.2896 -109.96484,5.2689 z m 238.60249,-276.26835 c 6.86116,-3.259 15.16127,-8.78504 18.4447,-12.28007 l 5.96986,-6.35462 -6.30206,-2.27885 c -3.46613,-1.25336 -29.98021,-2.27885 -58.92017,-2.27885 -33.1062,0 -60.62299,-1.40418 -74.20502,-3.78664 -48.67899,-8.53898 -173.45442,-3.05404 -221.44834,9.73454 -15.78902,4.20718 -17.4003,4.14814 -39.74499,-1.45607 -12.80887,-3.21256 -27.58271,-5.84101 -32.83077,-5.84101 -8.83488,0 -9.54192,0.60894 -9.54192,8.21773 0,5.12722 2.49089,10.70865 6.62325,14.84101 6.46015,6.46015 7.64929,6.62327 48.28629,6.62327 30.10888,0 55.77287,-1.9527 92.54165,-7.0412 63.32427,-8.76356 116.09827,-7.88049 172.30501,2.88318 44.26079,8.47599 79.65044,8.12418 98.82251,-0.98242 z M -490.66374,668.16651 c 5.80877,-2.04946 26.30036,-6.36679 45.53687,-9.59406 59.1032,-9.91565 76.07367,-22.67876 72.97263,-54.88104 -1.92704,-20.0108 -7.12584,-29.8186 -18.72298,-35.32181 -11.39425,-5.4069 -31.20626,-5.69927 -43.31674,-0.63916 -16.97201,7.09136 -15.12544,15.12514 4.61928,20.09693 6.52977,1.6442 14.86367,6.45039 19.40583,11.19139 11.2515,11.74401 7.42193,16.16083 -20.47951,23.61997 -12.4723,3.33435 -29.61102,8.29896 -38.08604,11.03248 -15.2344,4.91367 -15.79736,4.89991 -49.63861,-1.21348 -18.82622,-3.40094 -37.91993,-7.47002 -42.43048,-9.04241 -9.71039,-3.38507 -17.99572,-10.35802 -17.99572,-15.14527 0,-6.63366 13.81317,-20.02656 20.65501,-20.02656 16.92821,0 22.38514,-11.65858 10.01228,-21.39107 -9.69212,-7.62383 -27.49566,-7.51489 -37.33975,0.22855 -14.29313,11.24298 -23.01042,26.32096 -22.99946,39.78142 0.0243,28.75027 26.63909,49.06561 74.19493,56.6318 8.90461,1.41672 19.22585,3.80903 22.9361,5.31623 8.92641,3.62615 8.53984,3.63818 20.67636,-0.64383 z m -23.90978,-123.80134 c 1.67825,-2.02216 3.59916,-30.76187 4.73431,-70.83208 2.06962,-73.05765 0.45958,-89.43073 -11.00871,-111.95223 l -6.18322,-12.14264 -2.27335,8.09509 c -2.76142,9.83309 -3.06599,178.86018 -0.33424,185.51257 2.2547,5.4908 10.96979,6.25397 15.06521,1.31929 z m -304.38014,-26.6028 c 11.99098,-5.75265 21.38056,-8.36286 29.68201,-8.25131 18.96922,0.255 32.38037,-4.11686 32.38037,-10.5553 0,-8.36703 -16.32033,-13.8068 -41.7743,-13.92385 -28.61592,-0.13169 -42.86252,6.47993 -47.52969,22.05759 -3.67813,12.27648 -1.9302,19.09249 4.89541,19.08947 2.64375,-0.001 12.69954,-3.78864 22.3462,-8.4166 z m 365.28118,-13.24762 c 8.91332,-10.59289 10.89284,-22.12549 8.96896,-52.25295 -1.32487,-20.74721 -10.48366,-65.10948 -14.21186,-68.83768 -3.2392,-3.2392 -12.09928,10.2386 -14.87017,22.62028 -2.57036,11.48554 -2.31237,21.78541 1.361,54.33705 6.55346,58.07367 6.71067,58.44367 18.75207,44.1333 z m 297.16733,-15.45027 c 28.28566,-6.48744 32.4851,-8.16013 33.20851,-13.22728 1.42975,-10.01498 -8.74349,-14.41685 -33.31917,-14.41685 -29.09096,0 -48.25137,5.90248 -61.20279,18.85388 -5.60626,5.60628 -10.19321,12.33565 -10.19321,14.95417 0,4.27208 2.00882,4.58134 19.56314,3.01181 10.75973,-0.96205 34.13432,-5.09111 51.94352,-9.17573 z m -134.87827,-0.91561 c 14.85571,-7.80794 38.43826,-31.42972 41.92506,-41.99481 3.50979,-10.63483 -0.38025,-19.81245 -8.39777,-19.81245 -2.95303,0 -13.80837,4.24993 -24.12297,9.44428 -12.36226,6.22553 -22.5385,9.44427 -29.85862,9.44427 -9.79296,0 -12.64092,-1.59379 -24.10868,-13.49182 -10.86288,-11.27048 -14.59901,-13.49182 -22.69214,-13.49182 -9.09038,0 -9.68823,0.53023 -9.68823,8.59235 0,13.75496 10.47837,31.95298 28.84579,50.09708 14.84478,14.66431 18.39483,16.86478 27.2082,16.86478 5.57471,0 14.97493,-2.54335 20.88936,-5.65186 z M -648.953,484.35453 c 20.68251,-10.69534 49.40482,-50.30205 44.93174,-61.95871 -2.55519,-6.65873 -10.57913,-4.93153 -37.1347,7.99334 -13.72163,6.67845 -26.63539,12.14264 -28.69725,12.14264 -2.06186,0 -7.9255,-3.18569 -13.0303,-7.07932 -12.88706,-9.82944 -30.93078,-11.71239 -38.61365,-4.02952 -11.1227,11.12271 -6.94203,22.04196 14.83332,38.74231 28.77713,22.07027 38.05801,24.35214 57.71084,14.18926 z m 397.95058,-79.73802 c 22.23153,-10.13284 40.81088,-19.59307 41.28744,-21.02274 1.27284,-3.81857 -22.41203,-10.82994 -42.58211,-12.60552 -9.64666,-0.84918 -40.94655,-0.50516 -69.55534,0.76447 -42.04897,1.86608 -52.84836,3.14079 -56.36004,6.6525 -2.38927,2.38924 -3.68489,6.06195 -2.87919,8.16158 0.80571,2.0996 13.13948,8.84548 27.4084,14.99084 14.26893,6.14537 30.4719,14.2593 36.0066,18.03094 12.95388,8.82748 15.91844,8.16177 66.67424,-14.97207 z m -402.56891,10.60868 c 6.24831,-3.14584 16.82474,-9.59944 23.50319,-14.3413 6.67845,-4.74189 18.05271,-12.0809 25.27615,-16.30897 l 13.13348,-7.68737 -8.36374,-4.32507 c -4.60007,-2.37877 -15.54509,-14.10894 -24.32231,-26.06704 -21.14079,-28.80232 -30.11736,-36.18351 -44.00425,-36.18351 -10.2598,0 -12.44969,1.60669 -38.24466,28.05932 -28.98192,29.72084 -36.44564,33.95579 -59.90094,33.98801 -14.95162,0.0216 -20.64971,4.79613 -21.07831,17.66574 -0.44115,13.24651 1.89725,13.83457 36.73097,9.23693 33.05096,-4.36234 44.76302,-1.64902 52.97736,12.27324 5.18115,8.78142 6.46597,9.40971 19.24218,9.40971 8.57608,0 17.93424,-2.1367 25.05088,-5.71969 z M -809.44249,277.88933 c 31.66122,-19.99278 46.12881,-24.74417 80.08301,-26.30045 32.40691,-1.48537 67.85179,3.58348 101.80516,14.55886 22.54581,7.28788 31.46245,6.11067 45.93143,-6.06417 7.14951,-6.01592 18.7025,-29.23505 15.92718,-32.01034 -0.6421,-0.64211 -5.97804,0.54593 -11.85761,2.64008 -14.10198,5.02273 -26.96168,4.93695 -57.91155,-0.38633 -15.869,-2.7294 -42.59554,-4.52419 -70.15748,-4.71129 -39.15865,-0.26579 -46.84565,0.42815 -63.80032,5.75993 -23.19079,7.29284 -46.63216,22.4811 -59.19049,38.35105 -9.11871,11.52328 -10.93654,16.3914 -7.43015,19.89779 2.94915,2.94915 4.26688,2.36784 26.60082,-11.73513 z m 665.07998,6.18543 c 0,-7.20444 -30.39775,-34.41327 -48.61892,-43.51849 -27.2667,-13.62534 -51.25681,-17.53676 -96.79438,-15.78161 -27.07591,1.04357 -46.13683,3.28135 -60.85384,7.14425 l -21.42918,5.62471 -14.25127,-5.90683 c -17.56641,-7.28086 -27.88887,-4.44142 -27.88887,7.67145 0,9.02228 17.34946,27.82986 25.67224,27.82986 3.12865,0 27.47105,-3.75515 54.09425,-8.34475 63.72917,-10.98639 96.30442,-10.43412 122.77343,2.08147 9.55723,4.51903 23.8737,12.63401 31.81437,18.0333 16.39176,11.14565 35.48217,13.92545 35.48217,5.16664 z"
         id="path1029"
         transform="scale(0.26458333)"
         sodipodi:nodetypes="sssssssssssssscccssssssssssssssssssssssssscssssssssssssssssssssssssssscssssssscsssssssssssssssssssssssssssssssssssssssssssssssssssssscsssscssssssssssssssssssssscsssssss" />
      <circle
         style="fill:#cbcbcb;fill-opacity:1;stroke:#000000;stroke-width:1.72339;stroke-miterlimit:4;stroke-dasharray:none;stroke-opacity:1"
         id="path2081"
         cx="-176.55284"
         cy="98.632309"
         r="10.564849" />
      <circle
         style="fill:#4eb9ca;fill-opacity:1;stroke:none;stroke-width:1.95558;stroke-miterlimit:4;stroke-dasharray:none;stroke-opacity:1"
         id="path2905"
         cx="-176.24997"
         cy="98.631836"
         r="5.8686886" />
      <circle
         style="fill:#000000;fill-opacity:1;stroke:none;stroke-width:1.514;stroke-miterlimit:4;stroke-dasharray:none;stroke-opacity:1"
         id="path6259"
         cx="-175.61893"
         cy="98.94735"
         r="1.9562296" />
      <path
         style="fill:none;stroke:#ff0000;stroke-width:0.264583px;stroke-linecap:butt;stroke-linejoin:miter;stroke-opacity:1"
         d="m -180.27043,107.44832 c 0.64798,-0.26505 1.0439,-0.87442 1.60637,-1.2494 0.0949,-0.0633 0.28306,-0.0307 0.35697,-0.17849 0.072,-0.14394 -0.12928,-0.25855 -0.17849,-0.35697 -0.0661,-0.13222 0,-0.47362 0,-0.6247"
         id="path6671" />
      <path
         style="fill:none;stroke:#ff0000;stroke-width:0.264583px;stroke-linecap:butt;stroke-linejoin:miter;stroke-opacity:1"
         d="m -171.52464,106.73437 c -0.38262,-0.13763 0.13747,-1.86929 0,-2.05258 -0.0643,-0.0858 -0.16814,-0.13865 -0.26773,-0.17849 -0.27653,-0.11061 -1.03861,0.14053 -1.2494,0 -0.0553,-0.0369 -0.0422,-0.13145 -0.0892,-0.17848 -0.16526,-0.16526 -0.39911,-0.0843 -0.6247,-0.53546"
         id="path6937" />
      <path
         style="fill:none;stroke:#ff0000;stroke-width:0.264583px;stroke-linecap:butt;stroke-linejoin:miter;stroke-opacity:1"
         d="m -184.19711,103.07542 c 0.2274,-0.53466 0.88091,-0.40687 1.24939,-0.71394 0.26169,-0.21807 0.73079,-0.98167 1.07092,-0.98167 0.108,0 0.37385,-0.0374 0.44621,0.0892 0.29761,0.52081 0.0957,0.80318 0.71394,0.80318"
         id="path7250" />
      <path
         style="fill:none;stroke:#fd0000;stroke-width:0.264583px;stroke-linecap:butt;stroke-linejoin:miter;stroke-opacity:1"
         d="m -180.35967,90.759914 c 0.14873,0.118991 0.30159,0.23301 0.44621,0.356973 0.27197,0.233119 0.52347,0.49017 0.80318,0.713941 0.36154,0.289229 0.81903,0.367012 0.71395,0.892429 -0.0338,0.169008 -0.0535,0.263208 -0.17849,0.356971 -0.26498,0.198739 -0.6247,0.174709 -0.6247,0.535455"
         id="path7384" />
      <path
         style="fill:none;stroke:#ff0000;stroke-width:0.264583px;stroke-linecap:butt;stroke-linejoin:miter;stroke-opacity:1"
         d="m -167.41947,97.006909 c -0.20823,0.02975 -0.41435,0.08924 -0.6247,0.08924 -0.13184,0 -0.53858,-0.176924 -0.71394,-0.08924 -0.46092,0.230457 -0.6134,0.803185 -1.33864,0.803185"
         id="path7617" />
      <path
         style="fill:none;stroke:#ff0000;stroke-width:0.264583px;stroke-linecap:butt;stroke-linejoin:miter;stroke-opacity:1"
         d="m -185.98197,98.524038 c 0.89346,-0.724612 1.57946,-2.007926 2.76653,-2.320314 0.31775,-0.08362 0.65374,-0.06875 0.98167,-0.08924 0.40539,-0.02535 0.59473,-0.01497 0.98167,0.178486 0.56806,0.28403 0.38418,1.070914 0.80318,1.070914"
         id="path7784" />
      <path
         style="fill:#818181;fill-opacity:1;stroke:#000000;stroke-width:10.9181;stroke-miterlimit:4;stroke-dasharray:none;stroke-opacity:1"
         d="m -63.272457,246.54051 c -2.454473,-2.92584 -10.424513,-15.4327 -17.711191,-27.79305 -15.135235,-25.67379 -22.843362,-33.66836 -32.461962,-33.66836 -5.20333,0 -7.76529,1.52139 -13.14431,7.80556 l -6.68126,7.80555 -8.86648,-8.1728 c -19.689,-18.14869 -25.14887,-35.30842 -27.86478,-87.57565 -2.06176,-39.678425 -5.58708,-64.616135 -10.11039,-71.519566 -1.77754,-2.712878 -13.34638,-8.771395 -32.01819,-16.76767 C -329.2175,-33.4883 -407.66953,-58.239812 -538.065,-86.177206 c -25.09625,-5.376903 -74.43458,-4.043269 -106.84979,2.888189 -24.81934,5.307206 -112.12104,29.66465 -127.3816,35.539862 -10.73206,4.131768 -18.63868,4.953298 -20.39059,2.118661 -0.59341,-0.960167 1.89998,-7.460855 5.54087,-14.445971 20.23065,-38.812884 56.40639,-75.237435 90.86657,-91.491555 29.19151,-13.769 48.90464,-15.58587 81.63376,-7.52382 17.85871,4.39908 22.92677,4.8802 42.2362,4.00962 25.33666,-1.14232 30.9822,-2.70454 87.76947,-24.28735 46.93928,-17.83995 63.29522,-21.88341 87.76947,-21.69809 14.89392,0.11278 20.67818,1.08296 32.43654,5.44056 42.22328,15.64776 70.34576,34.45613 140.29879,93.83214 22.06992,18.732908 47.54841,39.851095 56.61886,46.929311 13.20794,10.306941 17.52125,14.973729 21.6621,23.437322 4.45302,9.101657 4.99897,12.026134 3.93499,21.078857 l -1.23535,10.51102306 18.3524,20.43055694 c 29.517523,32.859973 57.84033,79.137074 75.855319,123.94131 4.501982,11.19665 4.577483,11.9252 1.235737,11.9252 -2.019919,0 -8.357256,-5.54554 -14.653571,-12.82276 -21.800219,-25.1964 -34.132287,-37.29473 -43.530945,-42.70586 -10.34947,-5.958531 -20.91749,-7.139679 -26.61373,-2.974484 -3.31858,2.426614 -3.13674,3.231274 3.64801,16.142694 4.56878,8.69439 14.11401,21.19602 26.5014,34.70951 33.512097,36.55859 41.191296,46.11575 48.017051,59.75965 7.452773,14.89721 8.74722,27.9636 3.731195,37.6635 -3.636671,7.03255 -6.952735,7.11364 -12.660613,0.30964 z M -227.41697,-61.545138 c 0.92599,-11.193107 -5.92038,-21.003333 -25.83788,-37.023419 -40.12645,-32.274553 -87.33144,-59.658063 -114.0413,-66.155103 -20.96081,-5.09862 -21.94236,-5.2363 -21.94236,-3.07785 0,3.47415 21.18762,24.6067 33.50443,33.41735 6.35912,4.54892 24.74673,16.09602 40.86136,25.66023 37.52309,22.270376 43.76029,26.623079 60.83237,42.452511 12.0135,11.139073 14.95628,12.969395 20.055,12.473583 5.4057,-0.525663 6.03207,-1.264447 6.56838,-7.747302 z m -63.71396,-0.670038 c 5.41091,-2.076362 3.39124,-9.508885 -4.52804,-16.663486 -10.75138,-9.713226 -20.21428,-13.96982 -34.43055,-15.487518 -19.71406,-2.104632 -39.66545,-7.34336 -89.6775,-23.54706 -25.71073,-8.33017 -52.32778,-16.07206 -59.14899,-17.20422 -20.24909,-3.36085 -30.52851,-4.19774 -30.52851,-2.48544 0,2.34028 16.65933,17.50365 27.07682,24.64539 12.62673,8.6563 38.28363,20.76865 54.01453,25.499678 16.48343,4.957354 119.85461,26.175174 128.15909,26.305756 3.32479,0.05228 7.4032,-0.426115 9.06315,-1.0631 z"
         id="path8431"
         transform="scale(0.26458333)" />
      <path
         style="fill:#818181;fill-opacity:1;stroke:#000000;stroke-width:10.9181;stroke-miterlimit:4;stroke-dasharray:none;stroke-opacity:1"
         d="m -1014.426,148.96291 c 1.7953,-17.28882 12.4783,-47.05575 23.43294,-65.29373 10.71065,-17.831687 30.32288,-39.709275 46.49657,-51.867252 12.69993,-9.546708 44.98652,-26.5935733 56.10294,-29.6215583 18.22846,-4.9652218 19.15677,8.0955913 2.08269,29.3021573 -3.37968,4.19767 -7.5701,11.925199 -9.31205,17.172287 -3.6783,11.07977 -11.62685,22.248688 -20.59937,28.945278 -3.47113,2.590664 -18.33176,10.825665 -33.0236,18.300002 -30.97258,15.757006 -41.54851,25.039966 -53.30302,46.786386 -4.1306,7.64187 -8.7794,14.94009 -10.3305,16.21827 -2.4575,2.02501 -2.6565,0.74615 -1.5466,-9.94184 z"
         id="path11023"
         transform="scale(0.26458333)" />
      <path
         style="fill:#818181;fill-opacity:1;stroke:#000000;stroke-width:10.9181;stroke-miterlimit:4;stroke-dasharray:none;stroke-opacity:1"
         d="m -939.64032,458.05674 c -2.62293,-5.17611 -9.81628,-22.13374 -15.98522,-37.68363 -6.16895,-15.54991 -13.88379,-32.47547 -17.1441,-37.61237 -16.4777,-25.96201 -18.65476,-61.14761 -6.10172,-98.61595 3.06506,-9.14857 12.56884,-32.29107 21.11951,-51.42777 l 15.54668,-34.79399 -3.709,-4.99095 c -11.16708,-15.02671 -30.30205,0.3078 -55.57593,44.53783 -10.6201,18.58555 -11.818,17.70376 -6.9776,-5.13667 3.2876,-15.51349 14.71105,-40.12565 26.07433,-56.17778 15.1437,-21.39246 56.02337,-69.29568 56.66019,-66.395 0.33898,1.54401 -0.25876,13.3267 -1.32831,26.18375 -2.58672,31.09479 0.36318,46.00023 11.01082,55.63622 2.40536,2.17682 4.01141,5.95904 4.01141,9.44681 0,3.1991 -6.80788,26.03396 -15.12863,50.74414 -18.53488,55.04317 -23.03201,76.88952 -23.03201,111.886 0,30.39393 3.21033,48.42136 12.71029,71.3739 8.65717,20.9163 8.93337,21.93372 7.50222,27.63584 -1.78465,7.11064 -4.3293,5.89528 -9.65293,-4.61038 z"
         id="path11062"
         transform="scale(0.26458333)" />
      <path
         style="fill:#008000;fill-opacity:1;stroke:#000000;stroke-width:10.9181;stroke-miterlimit:4;stroke-dasharray:none;stroke-opacity:1"
         d="m -74.972814,376.2949 c -5.975488,-26.98708 -14.748867,-66.85294 -19.496397,-88.5908 -4.747529,-21.73786 -9.125949,-41.05668 -9.729819,-42.93072 -0.77315,-2.39935 0.009,-2.05185 2.64488,1.17468 4.964667,6.07781 11.920166,26.19551 11.895963,34.40723 -0.0328,11.12689 6.979037,22.15713 23.84511,37.51047 21.313693,19.40206 21.812668,20.86092 14.459701,42.27613 -3.778016,11.00331 -6.831848,25.3855 -8.583394,40.42398 -1.495384,12.8391 -3.045723,23.67067 -3.4452,24.07014 -0.399475,0.39948 -5.615355,-21.35402 -11.590844,-48.34111 z"
         id="path11101"
         transform="scale(0.26458333)" />
      <path
         style="fill:#008000;fill-opacity:1;stroke:#000000;stroke-width:10.9181;stroke-miterlimit:4;stroke-dasharray:none;stroke-opacity:1"
         d="m -927.43394,592.24496 c -12.80062,-13.3328 -33.04543,-20.47141 -78.09886,-27.5388 -15.1027,-2.3691 -29.873,-5.89563 -35.7046,-8.52472 -10.0281,-4.521 -10.1375,-4.67879 -12.8823,-18.57727 -1.2476,-6.31715 2.9422,-32.22864 6.9616,-43.05361 5.1219,-13.79453 14.5223,-28.59319 25.9745,-40.89075 15.8009,-16.96742 27.32809,-18.49521 39.3282,-5.21252 9.30029,10.29432 15.47731,23.20891 25.9807,54.31912 4.96024,14.69185 12.50546,34.57073 16.76716,44.1753 8.34981,18.81793 19.93327,50.41118 18.87202,51.47242 -0.3579,0.3579 -3.59718,-2.41823 -7.19842,-6.16917 z"
         id="path13634"
         transform="scale(0.26458333)" />
      <path
         style="fill:#008000;fill-opacity:1;stroke:#000000;stroke-width:10.9181;stroke-miterlimit:4;stroke-dasharray:none;stroke-opacity:1"
         d="m -103.52909,778.95403 c 7.42519,-44.099 27.285685,-136.40344 33.755894,-156.88527 2.599604,-8.22921 8.63254,-35.06724 13.406523,-59.64008 12.409552,-63.87493 20.217125,-85.03532 38.644395,-104.73556 7.7314584,-8.26556 8.7535453,-8.77487 14.8500622,-7.39988 11.2453983,2.53625 18.6651158,8.20104 23.7773458,18.15349 4.781712,9.30899 4.853301,10.09135 4.853301,53.03934 v 43.59098 l 5.846271,5.09729 c 3.215448,2.8035 9.869709,7.87009 14.787247,11.25907 10.622651,7.32073 11.381909,11.88994 4.053629,24.3947 -4.987641,8.51077 -6.846791,9.55147 -25.641163,14.35326 -20.8029725,5.31496 -26.1574004,8.99822 -37.019059,25.46507 -5.618294,8.51765 -16.868245,23.15445 -24.999889,32.52624 -8.131645,9.37182 -15.964171,19.86225 -17.405617,23.31213 -3.523408,8.4327 -3.305028,26.0691 0.539439,43.56514 3.940406,17.93265 2.438388,21.95246 -10.688089,28.60414 -9.989309,5.06197 -28.471709,10.54703 -35.53916,10.54703 -3.41992,0 -3.95724,-0.87527 -3.22113,-5.24709 z"
         id="path13673"
         transform="scale(0.26458333)" />
    </g>
  </g>
</svg>
